# xmcd CD database file
#
# Track frame offsets:
#	150
#	11150
#	29475
#	43495
#	58046
#	77730
#	87358
#	100884
#	114011
#	127004
#	148591
#	161509
#	188642
#	205523
#	223710
#	235780
#	245910
#	268631
#	284573
#	312086
#
# Disc length: 4406 seconds
#
# Revision: 3
# Processed by: cddbd v1.5.2PL0 Copyright (c) Steve Scherf et al.
# Submitted via: CDex 1.70beta2
#
DISCID=23113414
DTITLE=kt2 - Lostchild original sound track "Lostchild infinia" [Disc 2]
DYEAR=2005
DGENRE=Game
TTITLE0=Nankou
TTITLE1=Days I
TTITLE2=That Moment
TTITLE3=Days II
TTITLE4=Seance (Remix)
TTITLE5=Trespass
TTITLE6=The Devil in Me
TTITLE7=Catch as Catch Can
TTITLE8=Go Out Alone
TTITLE9=Underan illusion
TTITLE10=Dual Moon
TTITLE11=End of Time
TTITLE12=Rewind
TTITLE13=Friend and Enemy
TTITLE14=Determination
TTITLE15=Basement
TTITLE16=Clone
TTITLE17=Deserter
TTITLE18=Fact of Life
TTITLE19=After The Day Has Gone
EXTD=YEAR: 2005
EXTT0=
EXTT1=
EXTT2=
EXTT3=
EXTT4=
EXTT5=
EXTT6=
EXTT7=
EXTT8=
EXTT9=
EXTT10=
EXTT11=
EXTT12=
EXTT13=
EXTT14=
EXTT15=
EXTT16=
EXTT17=
EXTT18=
EXTT19=
PLAYORDER=
